<svg width="83" height="76" viewBox="0 0 83 76" fill="none" xmlns="http://www.w3.org/2000/svg">
<path d="M29.0444 35.3111C32.2444 41.6 37.4 46.7556 43.6889 49.9556L48.5778 45.0667C49.2 44.4444 50.0667 44.2667 50.8444 44.5111C53.3333 45.3333 56 45.7778 58.7778 45.7778C59.3671 45.7778 59.9324 46.0119 60.3491 46.4287C60.7659 46.8454 61 47.4106 61 48V55.7778C61 56.3671 60.7659 56.9324 60.3491 57.3491C59.9324 57.7659 59.3671 58 58.7778 58C48.7585 58 39.1496 54.0199 32.0649 46.9351C24.9801 39.8504 21 30.2415 21 20.2222C21 19.6329 21.2341 19.0676 21.6509 18.6509C22.0676 18.2341 22.6329 18 23.2222 18H31C31.5894 18 32.1546 18.2341 32.5713 18.6509C32.9881 19.0676 33.2222 19.6329 33.2222 20.2222C33.2222 23 33.6667 25.6667 34.4889 28.1556C34.7333 28.9333 34.5556 29.8 33.9333 30.4222L29.0444 35.3111Z" fill="#8F6E43"/>
<path d="M41.5 1C63.9523 1 82 17.6466 82 38C82 58.3534 63.9523 75 41.5 75C19.0477 75 1 58.3534 1 38C1 17.6466 19.0477 1 41.5 1Z" stroke="#8F6E43" stroke-width="2"/>
</svg>
