<svg width="92" height="86" viewBox="0 0 92 86" fill="none" xmlns="http://www.w3.org/2000/svg">
<path d="M41.1005 13C27.3819 13 16.201 24.125 16.201 37.775C16.201 42.15 17.3568 46.4 19.5176 50.15L16 63L29.191 59.55C32.8342 61.525 36.9296 62.575 41.1005 62.575C54.8191 62.575 66 51.45 66 37.8C66 31.175 63.4121 24.95 58.7136 20.275C54.0151 15.575 47.7588 13 41.1005 13ZM41.1256 17.175C46.6533 17.175 51.8291 19.325 55.7487 23.225C59.6432 27.125 61.804 32.3 61.804 37.8C61.804 49.15 52.5075 58.375 41.1005 58.375C37.3819 58.375 33.7387 57.4 30.5729 55.5L29.8191 55.075L21.9799 57.125L24.0653 49.525L23.5628 48.725C21.5025 45.5 20.397 41.675 20.397 37.775C20.4221 26.425 29.6935 17.175 41.1256 17.175ZM32.2814 26.325C31.8794 26.325 31.201 26.475 30.6231 27.1C30.0703 27.725 28.4372 29.25 28.4372 32.275C28.4372 35.325 30.6734 38.25 30.9497 38.675C31.3015 39.1 35.3719 45.35 41.6281 48C43.1105 48.675 44.2663 49.05 45.1708 49.325C46.6533 49.8 48.01 49.725 49.0904 49.575C50.2965 49.4 52.7588 48.075 53.2864 46.625C53.8141 45.175 53.8141 43.95 53.6633 43.675C53.4874 43.425 53.0854 43.275 52.4573 43C51.8291 42.65 48.7638 41.15 48.2111 40.95C47.6332 40.75 47.2814 40.65 46.804 41.25C46.402 41.875 45.196 43.275 44.8442 43.675C44.4673 44.1 44.1156 44.15 43.5126 43.85C42.8593 43.525 40.8492 42.875 38.4874 40.775C36.6281 39.125 35.397 37.1 35.0201 36.475C34.7186 35.875 34.995 35.5 35.2965 35.225C35.5729 34.95 35.9749 34.5 36.2261 34.125C36.5528 33.775 36.6533 33.5 36.8543 33.1C37.0553 32.675 36.9548 32.325 36.804 32.025C36.6533 31.75 35.397 28.65 34.8693 27.425C34.3668 26.225 33.8643 26.375 33.4623 26.35C33.1106 26.35 32.7085 26.325 32.2814 26.325Z" fill="#8F6E43"/>
<path d="M41.5 1C63.9523 1 82 17.6466 82 38C82 58.3534 63.9523 75 41.5 75C19.0477 75 1 58.3534 1 38C1 17.6466 19.0477 1 41.5 1Z" stroke="#8F6E43" stroke-width="2"/>
</svg>
