<svg width="83" height="76" viewBox="0 0 83 76" fill="none" xmlns="http://www.w3.org/2000/svg">
<path d="M57.8 30.5L41 39.875L24.2 30.5V26.75L41 36.125L57.8 26.75M57.8 23H24.2C21.869 23 20 24.6688 20 26.75V49.25C20 50.2446 20.4425 51.1984 21.2302 51.9016C22.0178 52.6049 23.0861 53 24.2 53H57.8C58.9139 53 59.9822 52.6049 60.7698 51.9016C61.5575 51.1984 62 50.2446 62 49.25V26.75C62 24.6688 60.11 23 57.8 23Z" fill="#8F6E43"/>
<path d="M41.5 1C63.9523 1 82 17.6466 82 38C82 58.3534 63.9523 75 41.5 75C19.0477 75 1 58.3534 1 38C1 17.6466 19.0477 1 41.5 1Z" stroke="#8F6E43" stroke-width="2"/>
</svg>
