<svg width="24" height="19" viewBox="0 0 24 19" fill="none" xmlns="http://www.w3.org/2000/svg">
<path d="M9.6 13.5714L15.828 9.5L9.6 5.42857V13.5714ZM23.472 2.945C23.628 3.58286 23.736 4.43786 23.808 5.52357C23.892 6.60928 23.928 7.54571 23.928 8.36L24 9.5C24 12.4721 23.808 14.6571 23.472 16.055C23.172 17.2764 22.476 18.0636 21.396 18.4029C20.832 18.5793 19.8 18.7014 18.216 18.7829C16.656 18.8779 15.228 18.9186 13.908 18.9186L12 19C6.972 19 3.84 18.7829 2.604 18.4029C1.524 18.0636 0.828 17.2764 0.528 16.055C0.372 15.4171 0.264 14.5621 0.192 13.4764C0.108 12.3907 0.0719999 11.4543 0.0719999 10.64L0 9.5C0 6.52786 0.192 4.34286 0.528 2.945C0.828 1.72357 1.524 0.936429 2.604 0.597143C3.168 0.420714 4.2 0.298571 5.784 0.217143C7.344 0.122143 8.772 0.0814285 10.092 0.0814285L12 0C17.028 0 20.16 0.217143 21.396 0.597143C22.476 0.936429 23.172 1.72357 23.472 2.945Z" fill="#8F6E43"/>
</svg>
