<svg width="512" height="86.832" xmlns="http://www.w3.org/2000/svg" clip-rule="evenodd" fill-rule="evenodd" image-rendering="optimizeQuality" text-rendering="geometricPrecision" shape-rendering="geometricPrecision">
 <defs>
  <linearGradient y2="0.7566" x2="0.50494" y1="0.01424" x1="0.50493" id="prefix__a">
   <stop stop-color="#FFD433" offset="0"/>
   <stop stop-color="#FABE2B" offset="0.471"/>
   <stop stop-color="#F4A722" offset="1"/>
  </linearGradient>
  <linearGradient y2="0.7566" x2="0.50494" y1="0.01424" x1="0.50493" id="prefix__b">
   <stop stop-color="#FFD433" offset="0"/>
   <stop stop-color="#FABE2B" offset="0.471"/>
   <stop stop-color="#F4A722" offset="1"/>
  </linearGradient>
  <linearGradient y2="0.7566" x2="0.50494" y1="0.01424" x1="0.50491" id="prefix__c">
   <stop stop-color="#FFD433" offset="0"/>
   <stop stop-color="#FABE2B" offset="0.471"/>
   <stop stop-color="#F4A722" offset="1"/>
  </linearGradient>
  <linearGradient y2="0.7566" x2="0.50494" y1="0.01424" x1="0.50491" id="prefix__d">
   <stop stop-color="#FFD433" offset="0"/>
   <stop stop-color="#FABE2B" offset="0.471"/>
   <stop stop-color="#F4A722" offset="1"/>
  </linearGradient>
  <linearGradient y2="0.7566" x2="0.50494" y1="0.01424" x1="0.50493" id="prefix__e">
   <stop stop-color="#FFD433" offset="0"/>
   <stop stop-color="#FABE2B" offset="0.471"/>
   <stop stop-color="#F4A722" offset="1"/>
  </linearGradient>
 </defs>
 <g>
  <title>Layer 1</title>
  <path id="svg_1" d="m69.462,55.479l4.885,28.637a2.356,2.356 0 0 1 -0.246,1.484a2.322,2.322 0 0 1 -3.14,0.955l-25.683,-13.737l-25.58,13.681a2.324,2.324 0 0 1 -3.489,-2.365l4.719,-28.643l-20.191,-20.585a2.31,2.31 0 0 1 -0.714,-1.369a2.328,2.328 0 0 1 1.975,-2.631l28.203,-4.038l12.996,-25.578a2.325,2.325 0 0 1 4.157,-0.011l12.882,25.591l28.078,4.036a2.324,2.324 0 0 1 1.337,3.923l-20.189,20.65z" fill-rule="nonzero" fill="#F0B100"/>
  <path id="svg_2" d="m72.053,84.507l-5.083,-29.801l21.016,-21.497l-29.28,-4.209l-13.428,-26.675l-13.553,26.675l-29.399,4.209l21.087,21.497l-4.91,29.801l26.775,-14.321l26.775,14.321z" fill="url(#prefix__a)"/>
  <path id="svg_3" d="m174.885,55.479l4.885,28.637a2.356,2.356 0 0 1 -0.246,1.484a2.322,2.322 0 0 1 -3.14,0.955l-25.683,-13.737l-25.58,13.681a2.324,2.324 0 0 1 -3.489,-2.365l4.719,-28.643l-20.192,-20.585a2.328,2.328 0 0 1 1.262,-4l28.203,-4.038l12.996,-25.578a2.325,2.325 0 0 1 4.157,-0.011l12.882,25.591l28.077,4.036a2.324,2.324 0 0 1 1.338,3.923l-20.189,20.65z" fill-rule="nonzero" fill="#F0B100"/>
  <path id="svg_4" d="m177.476,84.507l-5.083,-29.801l21.016,-21.497l-29.281,-4.209l-13.427,-26.675l-13.552,26.675l-29.4,4.209l21.087,21.497l-4.911,29.801l26.776,-14.321l26.775,14.321z" fill="url(#prefix__b)"/>
  <path id="svg_5" d="m280.308,55.479l4.885,28.637a2.363,2.363 0 0 1 -0.246,1.484a2.322,2.322 0 0 1 -3.14,0.955l-25.683,-13.737l-25.58,13.681a2.325,2.325 0 0 1 -3.49,-2.365l4.72,-28.643l-20.192,-20.585a2.328,2.328 0 0 1 1.262,-4l28.203,-4.038l12.996,-25.578a2.325,2.325 0 0 1 4.157,-0.011l12.881,25.591l28.078,4.036a2.324,2.324 0 0 1 1.338,3.923l-20.189,20.65z" fill-rule="nonzero" fill="#F0B100"/>
  <path id="svg_6" d="m282.899,84.507l-5.083,-29.801l21.016,-21.497l-29.281,-4.209l-13.427,-26.675l-13.553,26.675l-29.399,4.209l21.087,21.497l-4.91,29.801l26.775,-14.321l26.775,14.321z" fill="url(#prefix__c)"/>
  <path id="svg_7" d="m385.731,55.479l4.885,28.637a2.363,2.363 0 0 1 -0.247,1.484a2.321,2.321 0 0 1 -3.14,0.955l-25.682,-13.737l-25.58,13.681a2.326,2.326 0 0 1 -3.49,-2.365l4.72,-28.643l-20.192,-20.585a2.328,2.328 0 0 1 1.262,-4l28.203,-4.038l12.996,-25.578a2.324,2.324 0 0 1 4.156,-0.011l12.883,25.591l28.077,4.036a2.324,2.324 0 0 1 1.338,3.923l-20.189,20.65z" fill-rule="nonzero" fill="#F0B100"/>
  <path id="svg_8" d="m388.322,84.507l-5.083,-29.801l21.016,-21.497l-29.281,-4.209l-13.427,-26.675l-13.553,26.675l-29.399,4.209l21.087,21.497l-4.911,29.801l26.776,-14.321l26.775,14.321z" fill="url(#prefix__d)"/>
  <path id="svg_9" d="m491.153,55.479l4.885,28.637a2.356,2.356 0 0 1 -0.246,1.484a2.322,2.322 0 0 1 -3.14,0.955l-25.683,-13.737l-25.58,13.681a2.324,2.324 0 0 1 -3.489,-2.365l4.719,-28.643l-20.192,-20.585a2.328,2.328 0 0 1 1.262,-4l28.203,-4.038l12.996,-25.578a2.325,2.325 0 0 1 4.157,-0.011l12.882,25.591l28.077,4.036a2.324,2.324 0 0 1 1.338,3.923l-20.189,20.65z" fill-rule="nonzero" fill="#F0B100"/>
  <path id="svg_10" d="m493.744,84.507l-5.083,-29.801l21.016,-21.497l-29.281,-4.209l-13.427,-26.675l-13.552,26.675l-29.4,4.209l21.087,21.497l-4.911,29.801l26.776,-14.321l26.775,14.321z" fill="url(#prefix__e)"/>
 </g>
</svg>